<svg xmlns="http://www.w3.org/2000/svg" xmlns:xlink="http://www.w3.org/1999/xlink" width="500" zoomAndPan="magnify" viewBox="0 0 375 374.999991" height="500" preserveAspectRatio="xMidYMid meet" version="1.0"><defs><clipPath id="02e3d762e4"><path d="M 160 106.917969 L 186 106.917969 L 186 132 L 160 132 Z M 160 106.917969 " clip-rule="nonzero"/></clipPath><clipPath id="bf0ebaf09c"><path d="M 108.488281 122 L 254 122 L 254 242.269531 L 108.488281 242.269531 Z M 108.488281 122 " clip-rule="nonzero"/></clipPath></defs><path fill="#481231" d="M 215.925781 140.257812 C 215.925781 141.0625 216.003906 141.863281 216.160156 142.652344 C 216.320312 143.445312 216.550781 144.210938 216.859375 144.957031 C 217.167969 145.703125 217.546875 146.410156 217.992188 147.082031 C 218.441406 147.75 218.949219 148.371094 219.519531 148.941406 C 220.089844 149.511719 220.710938 150.023438 221.378906 150.46875 C 222.050781 150.917969 222.757812 151.296875 223.5 151.605469 C 224.246094 151.914062 225.011719 152.148438 225.804688 152.304688 C 226.59375 152.460938 227.390625 152.539062 228.195312 152.539062 C 229.003906 152.539062 229.800781 152.460938 230.589844 152.304688 C 231.382812 152.148438 232.148438 151.914062 232.894531 151.605469 C 233.636719 151.296875 234.34375 150.917969 235.015625 150.46875 C 235.683594 150.023438 236.304688 149.511719 236.875 148.941406 C 237.445312 148.371094 237.953125 147.75 238.398438 147.082031 C 238.847656 146.410156 239.226562 145.703125 239.535156 144.957031 C 239.84375 144.210938 240.074219 143.445312 240.234375 142.652344 C 240.390625 141.863281 240.46875 141.0625 240.46875 140.257812 C 240.46875 139.449219 240.390625 138.652344 240.234375 137.859375 C 240.074219 137.070312 239.84375 136.300781 239.535156 135.554688 C 239.226562 134.8125 238.847656 134.101562 238.398438 133.433594 C 237.953125 132.761719 237.445312 132.140625 236.875 131.570312 C 236.304688 131 235.683594 130.492188 235.015625 130.042969 C 234.34375 129.59375 233.636719 129.21875 232.894531 128.90625 C 232.148438 128.597656 231.382812 128.367188 230.589844 128.210938 C 229.800781 128.050781 229.003906 127.972656 228.195312 127.972656 C 227.390625 127.972656 226.59375 128.050781 225.804688 128.210938 C 225.011719 128.367188 224.246094 128.597656 223.5 128.90625 C 222.757812 129.21875 222.050781 129.59375 221.378906 130.042969 C 220.710938 130.492188 220.089844 131 219.519531 131.570312 C 218.949219 132.140625 218.441406 132.761719 217.992188 133.433594 C 217.546875 134.101562 217.167969 134.8125 216.859375 135.554688 C 216.550781 136.300781 216.320312 137.070312 216.160156 137.859375 C 216.003906 138.652344 215.925781 139.449219 215.925781 140.257812 Z M 215.925781 140.257812 " fill-opacity="1" fill-rule="nonzero"/><path fill="#481231" d="M 210.257812 219.25 C 210.257812 220.054688 210.335938 220.855469 210.492188 221.644531 C 210.648438 222.433594 210.882812 223.203125 211.191406 223.945312 C 211.5 224.691406 211.878906 225.398438 212.328125 226.070312 C 212.773438 226.738281 213.285156 227.359375 213.855469 227.929688 C 214.425781 228.496094 215.042969 229.007812 215.714844 229.453125 C 216.386719 229.902344 217.09375 230.28125 217.839844 230.589844 C 218.585938 230.894531 219.351562 231.128906 220.144531 231.285156 C 220.933594 231.445312 221.734375 231.523438 222.539062 231.523438 C 223.347656 231.523438 224.144531 231.445312 224.9375 231.285156 C 225.726562 231.128906 226.496094 230.894531 227.242188 230.589844 C 227.984375 230.28125 228.695312 229.902344 229.363281 229.453125 C 230.035156 229.007812 230.65625 228.496094 231.226562 227.929688 C 231.796875 227.359375 232.304688 226.738281 232.753906 226.070312 C 233.199219 225.398438 233.578125 224.691406 233.886719 223.945312 C 234.195312 223.203125 234.429688 222.433594 234.585938 221.644531 C 234.746094 220.855469 234.824219 220.054688 234.824219 219.25 C 234.824219 218.445312 234.746094 217.648438 234.585938 216.855469 C 234.429688 216.066406 234.195312 215.300781 233.886719 214.554688 C 233.578125 213.808594 233.199219 213.101562 232.753906 212.433594 C 232.304688 211.761719 231.796875 211.144531 231.226562 210.574219 C 230.65625 210.003906 230.035156 209.496094 229.363281 209.046875 C 228.695312 208.601562 227.984375 208.222656 227.242188 207.914062 C 226.496094 207.605469 225.726562 207.371094 224.9375 207.214844 C 224.144531 207.058594 223.347656 206.980469 222.539062 206.980469 C 221.734375 206.980469 220.933594 207.058594 220.144531 207.214844 C 219.351562 207.371094 218.585938 207.605469 217.839844 207.914062 C 217.09375 208.222656 216.386719 208.601562 215.714844 209.046875 C 215.042969 209.496094 214.425781 210.003906 213.855469 210.574219 C 213.285156 211.144531 212.773438 211.761719 212.328125 212.433594 C 211.878906 213.101562 211.5 213.808594 211.191406 214.554688 C 210.882812 215.300781 210.648438 216.066406 210.492188 216.855469 C 210.335938 217.648438 210.257812 218.445312 210.257812 219.25 Z M 210.257812 219.25 " fill-opacity="1" fill-rule="nonzero"/><path fill="#481231" d="M 236.105469 180.367188 C 236.105469 181.171875 236.1875 181.96875 236.34375 182.757812 C 236.5 183.550781 236.734375 184.316406 237.042969 185.0625 C 237.351562 185.804688 237.730469 186.511719 238.175781 187.183594 C 238.625 187.851562 239.132812 188.472656 239.703125 189.042969 C 240.273438 189.613281 240.894531 190.121094 241.566406 190.570312 C 242.238281 191.015625 242.945312 191.394531 243.691406 191.703125 C 244.433594 192.011719 245.203125 192.242188 245.996094 192.402344 C 246.785156 192.558594 247.585938 192.636719 248.390625 192.636719 C 249.195312 192.636719 249.996094 192.558594 250.785156 192.402344 C 251.578125 192.242188 252.347656 192.011719 253.089844 191.703125 C 253.835938 191.394531 254.542969 191.015625 255.214844 190.570312 C 255.886719 190.121094 256.507812 189.613281 257.078125 189.042969 C 257.648438 188.472656 258.15625 187.851562 258.605469 187.183594 C 259.050781 186.511719 259.429688 185.804688 259.738281 185.0625 C 260.046875 184.316406 260.28125 183.550781 260.4375 182.757812 C 260.59375 181.96875 260.675781 181.171875 260.675781 180.367188 C 260.675781 179.558594 260.59375 178.761719 260.4375 177.972656 C 260.28125 177.179688 260.046875 176.414062 259.738281 175.667969 C 259.429688 174.925781 259.050781 174.21875 258.605469 173.546875 C 258.15625 172.878906 257.648438 172.257812 257.078125 171.6875 C 256.507812 171.117188 255.886719 170.609375 255.214844 170.164062 C 254.542969 169.714844 253.835938 169.335938 253.089844 169.027344 C 252.347656 168.71875 251.578125 168.488281 250.785156 168.328125 C 249.996094 168.171875 249.195312 168.09375 248.390625 168.09375 C 247.585938 168.09375 246.785156 168.171875 245.996094 168.328125 C 245.203125 168.488281 244.433594 168.71875 243.691406 169.027344 C 242.945312 169.335938 242.238281 169.714844 241.566406 170.164062 C 240.894531 170.609375 240.273438 171.117188 239.703125 171.6875 C 239.132812 172.257812 238.625 172.878906 238.175781 173.546875 C 237.730469 174.21875 237.351562 174.925781 237.042969 175.667969 C 236.734375 176.414062 236.5 177.179688 236.34375 177.972656 C 236.1875 178.761719 236.105469 179.558594 236.105469 180.367188 Z M 236.105469 180.367188 " fill-opacity="1" fill-rule="nonzero"/><path fill="#481231" d="M 185.761719 270.710938 C 185.761719 271.515625 185.839844 272.3125 186 273.105469 C 186.15625 273.894531 186.386719 274.660156 186.695312 275.40625 C 187.003906 276.152344 187.382812 276.859375 187.832031 277.527344 C 188.28125 278.199219 188.789062 278.816406 189.359375 279.386719 C 189.929688 279.957031 190.550781 280.464844 191.222656 280.914062 C 191.890625 281.363281 192.601562 281.738281 193.34375 282.046875 C 194.089844 282.355469 194.859375 282.589844 195.648438 282.746094 C 196.441406 282.902344 197.238281 282.980469 198.046875 282.980469 C 198.851562 282.980469 199.652344 282.902344 200.441406 282.746094 C 201.234375 282.589844 202 282.355469 202.746094 282.046875 C 203.492188 281.738281 204.199219 281.363281 204.871094 280.914062 C 205.539062 280.464844 206.160156 279.957031 206.730469 279.386719 C 207.300781 278.816406 207.8125 278.199219 208.257812 277.527344 C 208.707031 276.859375 209.085938 276.152344 209.394531 275.40625 C 209.703125 274.660156 209.9375 273.894531 210.09375 273.105469 C 210.25 272.3125 210.328125 271.515625 210.328125 270.710938 C 210.328125 269.90625 210.25 269.105469 210.09375 268.316406 C 209.9375 267.527344 209.703125 266.757812 209.394531 266.015625 C 209.085938 265.269531 208.707031 264.5625 208.257812 263.894531 C 207.8125 263.222656 207.300781 262.601562 206.730469 262.035156 C 206.160156 261.464844 205.539062 260.953125 204.871094 260.507812 C 204.199219 260.058594 203.492188 259.679688 202.746094 259.375 C 202 259.066406 201.234375 258.832031 200.441406 258.675781 C 199.652344 258.519531 198.851562 258.4375 198.046875 258.4375 C 197.238281 258.4375 196.441406 258.519531 195.648438 258.675781 C 194.859375 258.832031 194.089844 259.066406 193.34375 259.375 C 192.601562 259.679688 191.890625 260.058594 191.222656 260.507812 C 190.550781 260.953125 189.929688 261.464844 189.359375 262.035156 C 188.789062 262.601562 188.28125 263.222656 187.832031 263.894531 C 187.382812 264.5625 187.003906 265.269531 186.695312 266.015625 C 186.386719 266.757812 186.15625 267.527344 186 268.316406 C 185.839844 269.105469 185.761719 269.90625 185.761719 270.710938 Z M 185.761719 270.710938 " fill-opacity="1" fill-rule="nonzero"/><path fill="#481231" d="M 125.824219 256.972656 C 125.824219 257.777344 125.902344 258.578125 126.058594 259.367188 C 126.214844 260.15625 126.449219 260.925781 126.757812 261.667969 C 127.066406 262.414062 127.445312 263.121094 127.894531 263.789062 C 128.339844 264.460938 128.851562 265.082031 129.421875 265.652344 C 129.992188 266.21875 130.613281 266.730469 131.28125 267.175781 C 131.953125 267.625 132.660156 268.003906 133.40625 268.3125 C 134.152344 268.617188 134.917969 268.851562 135.710938 269.007812 C 136.5 269.167969 137.300781 269.246094 138.105469 269.246094 C 138.914062 269.246094 139.710938 269.167969 140.503906 269.007812 C 141.292969 268.851562 142.0625 268.617188 142.808594 268.3125 C 143.550781 268.003906 144.261719 267.625 144.929688 267.175781 C 145.601562 266.730469 146.222656 266.21875 146.792969 265.652344 C 147.363281 265.082031 147.871094 264.460938 148.320312 263.789062 C 148.769531 263.121094 149.144531 262.414062 149.453125 261.667969 C 149.761719 260.925781 149.996094 260.15625 150.152344 259.367188 C 150.3125 258.578125 150.390625 257.777344 150.390625 256.972656 C 150.390625 256.167969 150.3125 255.371094 150.152344 254.578125 C 149.996094 253.789062 149.761719 253.023438 149.453125 252.277344 C 149.144531 251.53125 148.769531 250.824219 148.320312 250.15625 C 147.871094 249.484375 147.363281 248.867188 146.792969 248.296875 C 146.222656 247.726562 145.601562 247.21875 144.929688 246.769531 C 144.261719 246.324219 143.550781 245.945312 142.808594 245.636719 C 142.0625 245.328125 141.292969 245.09375 140.503906 244.9375 C 139.710938 244.78125 138.914062 244.703125 138.105469 244.703125 C 137.300781 244.703125 136.5 244.78125 135.710938 244.9375 C 134.917969 245.09375 134.152344 245.328125 133.40625 245.636719 C 132.660156 245.945312 131.953125 246.324219 131.28125 246.769531 C 130.613281 247.21875 129.992188 247.726562 129.421875 248.296875 C 128.851562 248.867188 128.339844 249.484375 127.894531 250.15625 C 127.445312 250.824219 127.066406 251.53125 126.757812 252.277344 C 126.449219 253.023438 126.214844 253.789062 126.058594 254.578125 C 125.902344 255.371094 125.824219 256.167969 125.824219 256.972656 Z M 125.824219 256.972656 " fill-opacity="1" fill-rule="nonzero"/><path fill="#481231" d="M 236.105469 255.726562 C 236.105469 256.53125 236.1875 257.332031 236.34375 258.121094 C 236.5 258.914062 236.734375 259.679688 237.042969 260.425781 C 237.351562 261.171875 237.730469 261.878906 238.175781 262.550781 C 238.625 263.21875 239.132812 263.839844 239.703125 264.410156 C 240.273438 264.980469 240.894531 265.492188 241.566406 265.9375 C 242.238281 266.386719 242.945312 266.765625 243.691406 267.074219 C 244.433594 267.382812 245.203125 267.617188 245.996094 267.773438 C 246.785156 267.929688 247.585938 268.007812 248.390625 268.007812 C 249.195312 268.007812 249.996094 267.929688 250.785156 267.773438 C 251.578125 267.617188 252.347656 267.382812 253.089844 267.074219 C 253.835938 266.765625 254.542969 266.386719 255.214844 265.9375 C 255.886719 265.492188 256.507812 264.980469 257.078125 264.410156 C 257.648438 263.839844 258.15625 263.21875 258.605469 262.550781 C 259.050781 261.878906 259.429688 261.171875 259.738281 260.425781 C 260.046875 259.679688 260.28125 258.914062 260.4375 258.121094 C 260.59375 257.332031 260.675781 256.53125 260.675781 255.726562 C 260.675781 254.917969 260.59375 254.121094 260.4375 253.328125 C 260.28125 252.539062 260.046875 251.769531 259.738281 251.023438 C 259.429688 250.28125 259.050781 249.570312 258.605469 248.902344 C 258.15625 248.230469 257.648438 247.609375 257.078125 247.039062 C 256.507812 246.46875 255.886719 245.960938 255.214844 245.511719 C 254.542969 245.0625 253.835938 244.6875 253.089844 244.378906 C 252.347656 244.070312 251.578125 243.835938 250.785156 243.679688 C 249.996094 243.519531 249.195312 243.441406 248.390625 243.441406 C 247.585938 243.441406 246.785156 243.519531 245.996094 243.679688 C 245.203125 243.835938 244.433594 244.070312 243.691406 244.378906 C 242.945312 244.6875 242.238281 245.0625 241.566406 245.511719 C 240.894531 245.960938 240.273438 246.46875 239.703125 247.039062 C 239.132812 247.609375 238.625 248.230469 238.175781 248.902344 C 237.730469 249.570312 237.351562 250.28125 237.042969 251.023438 C 236.734375 251.769531 236.5 252.539062 236.34375 253.328125 C 236.1875 254.121094 236.105469 254.917969 236.105469 255.726562 Z M 236.105469 255.726562 " fill-opacity="1" fill-rule="nonzero"/><path fill="#ffffff" d="M 233.757812 138.972656 L 222.539062 138.972656 L 222.539062 141.6875 L 233.757812 141.6875 Z M 233.757812 138.972656 " fill-opacity="1" fill-rule="nonzero"/><path fill="#ffffff" d="M 228.085938 217.980469 L 216.894531 217.980469 L 216.894531 220.691406 L 228.085938 220.691406 Z M 228.085938 217.980469 " fill-opacity="1" fill-rule="nonzero"/><path fill="#ffffff" d="M 253.988281 179.070312 L 242.746094 179.070312 L 242.746094 181.832031 L 253.988281 181.832031 Z M 253.988281 179.070312 " fill-opacity="1" fill-rule="nonzero"/><path fill="#ffffff" d="M 203.59375 269.460938 L 192.402344 269.460938 L 192.402344 272.175781 L 203.59375 272.175781 Z M 203.59375 269.460938 " fill-opacity="1" fill-rule="nonzero"/><path fill="#ffffff" d="M 143.65625 255.726562 L 132.460938 255.726562 L 132.460938 258.4375 L 143.65625 258.4375 Z M 143.65625 255.726562 " fill-opacity="1" fill-rule="nonzero"/><path fill="#ffffff" d="M 253.9375 254.441406 L 242.746094 254.441406 L 242.746094 257.179688 L 253.9375 257.179688 Z M 253.9375 254.441406 " fill-opacity="1" fill-rule="nonzero"/><g clip-path="url(#02e3d762e4)"><path fill="#fe4939" d="M 160.832031 119.09375 C 160.832031 119.894531 160.910156 120.683594 161.066406 121.46875 C 161.222656 122.253906 161.453125 123.015625 161.757812 123.753906 C 162.066406 124.492188 162.441406 125.191406 162.882812 125.859375 C 163.328125 126.523438 163.832031 127.136719 164.398438 127.703125 C 164.960938 128.265625 165.578125 128.773438 166.242188 129.214844 C 166.90625 129.660156 167.609375 130.035156 168.347656 130.339844 C 169.085938 130.648438 169.847656 130.878906 170.632812 131.035156 C 171.414062 131.191406 172.207031 131.269531 173.007812 131.269531 C 173.804688 131.269531 174.597656 131.191406 175.382812 131.035156 C 176.164062 130.878906 176.925781 130.648438 177.664062 130.339844 C 178.402344 130.035156 179.105469 129.660156 179.769531 129.214844 C 180.433594 128.773438 181.050781 128.265625 181.613281 127.703125 C 182.179688 127.136719 182.683594 126.523438 183.128906 125.859375 C 183.574219 125.191406 183.949219 124.492188 184.253906 123.753906 C 184.558594 123.015625 184.789062 122.253906 184.945312 121.46875 C 185.101562 120.683594 185.179688 119.894531 185.179688 119.09375 C 185.179688 118.292969 185.101562 117.503906 184.945312 116.71875 C 184.789062 115.933594 184.558594 115.171875 184.253906 114.433594 C 183.949219 113.695312 183.574219 112.996094 183.128906 112.328125 C 182.683594 111.664062 182.179688 111.050781 181.613281 110.484375 C 181.050781 109.917969 180.433594 109.414062 179.769531 108.972656 C 179.105469 108.527344 178.402344 108.152344 177.664062 107.847656 C 176.925781 107.539062 176.164062 107.308594 175.382812 107.152344 C 174.597656 106.996094 173.804688 106.917969 173.007812 106.917969 C 172.207031 106.917969 171.414062 106.996094 170.632812 107.152344 C 169.847656 107.308594 169.085938 107.539062 168.347656 107.847656 C 167.609375 108.152344 166.90625 108.527344 166.242188 108.972656 C 165.578125 109.414062 164.960938 109.917969 164.398438 110.484375 C 163.832031 111.050781 163.328125 111.664062 162.882812 112.328125 C 162.441406 112.996094 162.066406 113.695312 161.757812 114.433594 C 161.453125 115.171875 161.222656 115.933594 161.066406 116.71875 C 160.910156 117.503906 160.832031 118.292969 160.832031 119.09375 Z M 160.832031 119.09375 " fill-opacity="1" fill-rule="nonzero"/></g><path fill="#fe4939" d="M 106.296875 137.144531 C 106.296875 137.941406 106.375 138.734375 106.527344 139.519531 C 106.683594 140.300781 106.917969 141.0625 107.222656 141.800781 C 107.527344 142.539062 107.902344 143.242188 108.347656 143.90625 C 108.792969 144.570312 109.296875 145.1875 109.859375 145.75 C 110.425781 146.316406 111.042969 146.820312 111.707031 147.265625 C 112.371094 147.710938 113.074219 148.085938 113.8125 148.390625 C 114.550781 148.695312 115.3125 148.929688 116.09375 149.082031 C 116.878906 149.238281 117.671875 149.316406 118.46875 149.316406 C 119.269531 149.316406 120.0625 149.238281 120.84375 149.082031 C 121.628906 148.929688 122.390625 148.695312 123.128906 148.390625 C 123.867188 148.085938 124.570312 147.710938 125.234375 147.265625 C 125.898438 146.820312 126.511719 146.316406 127.078125 145.75 C 127.644531 145.1875 128.148438 144.570312 128.59375 143.90625 C 129.035156 143.242188 129.410156 142.539062 129.71875 141.800781 C 130.023438 141.0625 130.253906 140.300781 130.410156 139.519531 C 130.566406 138.734375 130.644531 137.941406 130.644531 137.144531 C 130.644531 136.34375 130.566406 135.550781 130.410156 134.769531 C 130.253906 133.984375 130.023438 133.222656 129.71875 132.484375 C 129.410156 131.746094 129.035156 131.042969 128.59375 130.378906 C 128.148438 129.714844 127.644531 129.101562 127.078125 128.535156 C 126.511719 127.96875 125.898438 127.464844 125.234375 127.019531 C 124.570312 126.578125 123.867188 126.203125 123.128906 125.894531 C 122.390625 125.589844 121.628906 125.359375 120.84375 125.203125 C 120.0625 125.046875 119.269531 124.96875 118.46875 124.96875 C 117.671875 124.96875 116.878906 125.046875 116.09375 125.203125 C 115.3125 125.359375 114.550781 125.589844 113.8125 125.894531 C 113.074219 126.203125 112.371094 126.578125 111.707031 127.019531 C 111.042969 127.464844 110.425781 127.96875 109.859375 128.535156 C 109.296875 129.101562 108.792969 129.714844 108.347656 130.378906 C 107.902344 131.042969 107.527344 131.746094 107.222656 132.484375 C 106.917969 133.222656 106.683594 133.984375 106.527344 134.769531 C 106.375 135.550781 106.296875 136.34375 106.296875 137.144531 Z M 106.296875 137.144531 " fill-opacity="1" fill-rule="nonzero"/><path fill="#fe4939" d="M 187.601562 170.964844 C 187.601562 171.765625 187.679688 172.554688 187.835938 173.339844 C 187.992188 174.125 188.222656 174.886719 188.53125 175.625 C 188.835938 176.363281 189.210938 177.0625 189.65625 177.730469 C 190.097656 178.394531 190.605469 179.007812 191.167969 179.574219 C 191.734375 180.140625 192.347656 180.644531 193.015625 181.085938 C 193.679688 181.53125 194.378906 181.90625 195.117188 182.210938 C 195.855469 182.519531 196.617188 182.75 197.402344 182.90625 C 198.1875 183.0625 198.976562 183.140625 199.777344 183.140625 C 200.578125 183.140625 201.367188 183.0625 202.152344 182.90625 C 202.9375 182.75 203.699219 182.519531 204.4375 182.210938 C 205.175781 181.90625 205.875 181.53125 206.542969 181.085938 C 207.207031 180.644531 207.820312 180.140625 208.386719 179.574219 C 208.953125 179.007812 209.457031 178.394531 209.902344 177.730469 C 210.34375 177.0625 210.71875 176.363281 211.027344 175.625 C 211.332031 174.886719 211.5625 174.125 211.71875 173.339844 C 211.875 172.554688 211.953125 171.765625 211.953125 170.964844 C 211.953125 170.164062 211.875 169.375 211.71875 168.589844 C 211.5625 167.804688 211.332031 167.042969 211.027344 166.304688 C 210.71875 165.566406 210.34375 164.867188 209.902344 164.203125 C 209.457031 163.535156 208.953125 162.921875 208.386719 162.355469 C 207.820312 161.792969 207.207031 161.285156 206.542969 160.84375 C 205.875 160.398438 205.175781 160.023438 204.4375 159.71875 C 203.699219 159.410156 202.9375 159.179688 202.152344 159.023438 C 201.367188 158.867188 200.578125 158.789062 199.777344 158.789062 C 198.976562 158.789062 198.1875 158.867188 197.402344 159.023438 C 196.617188 159.179688 195.855469 159.410156 195.117188 159.71875 C 194.378906 160.023438 193.679688 160.398438 193.015625 160.84375 C 192.347656 161.285156 191.734375 161.792969 191.167969 162.355469 C 190.605469 162.921875 190.097656 163.535156 189.65625 164.203125 C 189.210938 164.867188 188.835938 165.566406 188.53125 166.304688 C 188.222656 167.042969 187.992188 167.804688 187.835938 168.589844 C 187.679688 169.375 187.601562 170.164062 187.601562 170.964844 Z M 187.601562 170.964844 " fill-opacity="1" fill-rule="nonzero"/><path fill="#fe4939" d="M 108.113281 210.699219 C 108.113281 211.496094 108.191406 212.289062 108.347656 213.074219 C 108.503906 213.859375 108.734375 214.617188 109.039062 215.359375 C 109.34375 216.097656 109.71875 216.796875 110.164062 217.460938 C 110.609375 218.125 111.113281 218.742188 111.679688 219.308594 C 112.242188 219.871094 112.859375 220.378906 113.523438 220.820312 C 114.1875 221.265625 114.890625 221.640625 115.628906 221.945312 C 116.367188 222.253906 117.128906 222.484375 117.910156 222.640625 C 118.695312 222.796875 119.488281 222.871094 120.285156 222.871094 C 121.085938 222.871094 121.878906 222.796875 122.660156 222.640625 C 123.445312 222.484375 124.207031 222.253906 124.945312 221.945312 C 125.683594 221.640625 126.386719 221.265625 127.050781 220.820312 C 127.714844 220.378906 128.332031 219.871094 128.894531 219.308594 C 129.460938 218.742188 129.964844 218.125 130.410156 217.460938 C 130.855469 216.796875 131.230469 216.097656 131.535156 215.359375 C 131.839844 214.617188 132.070312 213.859375 132.226562 213.074219 C 132.382812 212.289062 132.460938 211.496094 132.460938 210.699219 C 132.460938 209.898438 132.382812 209.109375 132.226562 208.324219 C 132.070312 207.539062 131.839844 206.777344 131.535156 206.039062 C 131.230469 205.300781 130.855469 204.597656 130.410156 203.933594 C 129.964844 203.269531 129.460938 202.65625 128.894531 202.089844 C 128.332031 201.523438 127.714844 201.019531 127.050781 200.574219 C 126.386719 200.132812 125.683594 199.757812 124.945312 199.449219 C 124.207031 199.144531 123.445312 198.914062 122.660156 198.757812 C 121.878906 198.601562 121.085938 198.523438 120.285156 198.523438 C 119.488281 198.523438 118.695312 198.601562 117.910156 198.757812 C 117.128906 198.914062 116.367188 199.144531 115.628906 199.449219 C 114.890625 199.757812 114.1875 200.132812 113.523438 200.574219 C 112.859375 201.019531 112.242188 201.523438 111.679688 202.089844 C 111.113281 202.65625 110.609375 203.269531 110.164062 203.933594 C 109.71875 204.597656 109.34375 205.300781 109.039062 206.039062 C 108.734375 206.777344 108.503906 207.539062 108.347656 208.324219 C 108.191406 209.109375 108.113281 209.898438 108.113281 210.699219 Z M 108.113281 210.699219 " fill-opacity="1" fill-rule="nonzero"/><path fill="#fe4939" d="M 163.449219 219.335938 C 163.449219 220.136719 163.527344 220.929688 163.683594 221.714844 C 163.839844 222.496094 164.070312 223.261719 164.375 224 C 164.679688 224.738281 165.054688 225.441406 165.5 226.105469 C 165.945312 226.769531 166.449219 227.386719 167.015625 227.953125 C 167.578125 228.519531 168.195312 229.023438 168.859375 229.46875 C 169.523438 229.914062 170.226562 230.289062 170.964844 230.59375 C 171.703125 230.902344 172.464844 231.132812 173.246094 231.289062 C 174.03125 231.445312 174.824219 231.523438 175.621094 231.523438 C 176.421875 231.523438 177.214844 231.445312 177.996094 231.289062 C 178.78125 231.132812 179.542969 230.902344 180.28125 230.59375 C 181.019531 230.289062 181.722656 229.914062 182.386719 229.46875 C 183.050781 229.023438 183.667969 228.519531 184.230469 227.953125 C 184.796875 227.386719 185.300781 226.769531 185.746094 226.105469 C 186.191406 225.441406 186.566406 224.738281 186.871094 224 C 187.175781 223.261719 187.40625 222.496094 187.5625 221.714844 C 187.71875 220.929688 187.796875 220.136719 187.796875 219.335938 C 187.796875 218.535156 187.71875 217.742188 187.5625 216.957031 C 187.40625 216.171875 187.175781 215.410156 186.871094 214.671875 C 186.566406 213.933594 186.191406 213.230469 185.746094 212.566406 C 185.300781 211.898438 184.796875 211.285156 184.230469 210.71875 C 183.667969 210.152344 183.050781 209.648438 182.386719 209.203125 C 181.722656 208.757812 181.019531 208.382812 180.28125 208.078125 C 179.542969 207.769531 178.78125 207.539062 177.996094 207.382812 C 177.214844 207.226562 176.421875 207.148438 175.621094 207.148438 C 174.824219 207.148438 174.03125 207.226562 173.246094 207.382812 C 172.464844 207.539062 171.703125 207.769531 170.964844 208.078125 C 170.226562 208.382812 169.523438 208.757812 168.859375 209.203125 C 168.195312 209.648438 167.578125 210.152344 167.015625 210.71875 C 166.449219 211.285156 165.945312 211.898438 165.5 212.566406 C 165.054688 213.230469 164.679688 213.933594 164.375 214.671875 C 164.070312 215.410156 163.839844 216.171875 163.683594 216.957031 C 163.527344 217.742188 163.449219 218.535156 163.449219 219.335938 Z M 163.449219 219.335938 " fill-opacity="1" fill-rule="nonzero"/><path fill="#fe4939" d="M 139.074219 169.65625 C 139.074219 170.457031 139.152344 171.246094 139.308594 172.03125 C 139.464844 172.816406 139.695312 173.578125 140.003906 174.316406 C 140.308594 175.054688 140.683594 175.757812 141.128906 176.421875 C 141.574219 177.085938 142.078125 177.699219 142.644531 178.265625 C 143.210938 178.832031 143.824219 179.335938 144.492188 179.78125 C 145.15625 180.222656 145.859375 180.597656 146.597656 180.90625 C 147.335938 181.210938 148.101562 181.441406 148.882812 181.597656 C 149.667969 181.753906 150.460938 181.832031 151.261719 181.832031 C 152.0625 181.832031 152.855469 181.753906 153.640625 181.597656 C 154.425781 181.441406 155.1875 181.210938 155.925781 180.90625 C 156.664062 180.597656 157.367188 180.222656 158.03125 179.78125 C 158.699219 179.335938 159.3125 178.832031 159.878906 178.265625 C 160.445312 177.699219 160.949219 177.085938 161.394531 176.421875 C 161.839844 175.757812 162.214844 175.054688 162.519531 174.316406 C 162.828125 173.578125 163.058594 172.816406 163.214844 172.03125 C 163.371094 171.246094 163.449219 170.457031 163.449219 169.65625 C 163.449219 168.859375 163.371094 168.066406 163.214844 167.28125 C 163.058594 166.496094 162.828125 165.738281 162.519531 164.996094 C 162.214844 164.257812 161.839844 163.558594 161.394531 162.894531 C 160.949219 162.226562 160.445312 161.613281 159.878906 161.046875 C 159.3125 160.484375 158.699219 159.976562 158.03125 159.535156 C 157.367188 159.089844 156.664062 158.714844 155.925781 158.410156 C 155.1875 158.101562 154.425781 157.871094 153.640625 157.714844 C 152.855469 157.558594 152.0625 157.484375 151.261719 157.484375 C 150.460938 157.484375 149.667969 157.558594 148.882812 157.714844 C 148.101562 157.871094 147.335938 158.101562 146.597656 158.410156 C 145.859375 158.714844 145.15625 159.089844 144.492188 159.535156 C 143.824219 159.976562 143.210938 160.484375 142.644531 161.046875 C 142.078125 161.613281 141.574219 162.226562 141.128906 162.894531 C 140.683594 163.558594 140.308594 164.257812 140.003906 164.996094 C 139.695312 165.738281 139.464844 166.496094 139.308594 167.28125 C 139.152344 168.066406 139.074219 168.859375 139.074219 169.65625 Z M 139.074219 169.65625 " fill-opacity="1" fill-rule="nonzero"/><path fill="#ffffff" d="M 174.25 120.539062 L 174.25 124.964844 L 171.652344 124.964844 L 171.652344 120.539062 L 167.414062 120.539062 L 167.414062 117.828125 L 171.652344 117.828125 L 171.652344 113.355469 L 174.25 113.355469 L 174.25 117.828125 L 178.53125 117.828125 L 178.53125 120.539062 Z M 174.25 120.539062 " fill-opacity="1" fill-rule="evenodd"/><path fill="#ffffff" d="M 119.710938 138.578125 L 119.710938 143.003906 L 117.117188 143.003906 L 117.117188 138.578125 L 112.878906 138.578125 L 112.878906 135.867188 L 117.117188 135.867188 L 117.117188 131.394531 L 119.710938 131.394531 L 119.710938 135.867188 L 123.992188 135.867188 L 123.992188 138.578125 Z M 119.710938 138.578125 " fill-opacity="1" fill-rule="evenodd"/><path fill="#ffffff" d="M 201.011719 172.40625 L 201.011719 176.835938 L 198.414062 176.835938 L 198.414062 172.40625 L 194.175781 172.40625 L 194.175781 169.695312 L 198.414062 169.695312 L 198.414062 165.222656 L 201.011719 165.222656 L 201.011719 169.695312 L 205.292969 169.695312 L 205.292969 172.40625 Z M 201.011719 172.40625 " fill-opacity="1" fill-rule="evenodd"/><path fill="#ffffff" d="M 121.527344 212.132812 L 121.527344 216.558594 L 118.933594 216.558594 L 118.933594 212.132812 L 114.695312 212.132812 L 114.695312 209.421875 L 118.933594 209.421875 L 118.933594 204.949219 L 121.527344 204.949219 L 121.527344 209.421875 L 125.8125 209.421875 L 125.8125 212.132812 Z M 121.527344 212.132812 " fill-opacity="1" fill-rule="evenodd"/><path fill="#ffffff" d="M 176.855469 220.773438 L 176.855469 225.199219 L 174.261719 225.199219 L 174.261719 220.773438 L 170.023438 220.773438 L 170.023438 218.0625 L 174.261719 218.0625 L 174.261719 213.589844 L 176.855469 213.589844 L 176.855469 218.0625 L 181.140625 218.0625 L 181.140625 220.773438 Z M 176.855469 220.773438 " fill-opacity="1" fill-rule="evenodd"/><path fill="#ffffff" d="M 152.5 171.089844 L 152.5 175.519531 L 149.902344 175.519531 L 149.902344 171.089844 L 145.664062 171.089844 L 145.664062 168.378906 L 149.902344 168.378906 L 149.902344 163.90625 L 152.5 163.90625 L 152.5 168.378906 L 156.78125 168.378906 L 156.78125 171.089844 Z M 152.5 171.089844 " fill-opacity="1" fill-rule="evenodd"/><g clip-path="url(#bf0ebaf09c)"><path fill="#481231" d="M 252.132812 127.203125 C 245.773438 117.90625 223.570312 122.15625 207.632812 133.054688 C 195.453125 141.382812 192.148438 150.105469 194.097656 157.90625 L 189.578125 161.457031 C 187.351562 163.207031 186.746094 166.257812 187.992188 168.6875 C 186.25 170.402344 184.601562 172.144531 183.089844 173.886719 C 178.988281 178.644531 176.132812 182.898438 174.113281 187.289062 C 173.492188 188.652344 172.996094 189.945312 172.59375 191.242188 L 172.296875 192.21875 C 172.230469 192.421875 172.164062 192.628906 172.082031 192.855469 C 171.902344 193.355469 171.695312 193.859375 171.476562 194.355469 C 170.617188 196.261719 169.445312 198.210938 167.996094 200.140625 C 165.195312 203.835938 161.671875 207.113281 157.804688 209.617188 C 155.773438 210.929688 153.695312 211.980469 151.632812 212.742188 C 149.371094 213.578125 147.152344 214.050781 145.050781 214.148438 L 144.015625 214.191406 C 143.691406 214.210938 143.367188 214.230469 143.0625 214.257812 C 142.386719 214.316406 141.703125 214.398438 141.042969 214.507812 C 139.773438 214.703125 138.488281 214.980469 137.113281 215.363281 C 134.691406 216.035156 132.207031 216.988281 129.730469 218.207031 C 124.984375 220.5625 120.726562 223.625 117.085938 227.308594 C 113.066406 231.390625 110.253906 235.800781 108.722656 240.429688 C 108.515625 241.054688 108.84375 241.730469 109.46875 241.953125 C 109.601562 242 109.742188 242.027344 109.878906 242.027344 C 110.363281 242.027344 110.820312 241.730469 111.007812 241.253906 C 112.628906 237.09375 115.421875 233.179688 119.308594 229.621094 C 122.847656 226.386719 126.921875 223.765625 131.398438 221.828125 C 135.941406 219.886719 140.285156 218.902344 144.308594 218.902344 C 144.570312 218.902344 144.832031 218.90625 145.117188 218.914062 L 145.441406 218.917969 C 147.957031 218.917969 150.597656 218.503906 153.292969 217.6875 C 155.769531 216.9375 158.273438 215.851562 160.730469 214.464844 C 165.40625 211.816406 169.566406 208.378906 173.109375 204.25 C 175.023438 201.992188 176.554688 199.761719 177.777344 197.421875 C 178.109375 196.78125 178.421875 196.128906 178.695312 195.492188 C 178.835938 195.167969 178.980469 194.808594 179.125 194.429688 L 179.445312 193.5625 C 179.804688 192.601562 180.261719 191.59375 180.804688 190.566406 C 182.691406 187.023438 185.449219 183.414062 189.230469 179.53125 C 190.566406 178.160156 192.011719 176.792969 193.527344 175.449219 C 195.570312 176.824219 198.339844 176.800781 200.378906 175.199219 L 204.855469 171.679688 C 211.238281 174.882812 219.820312 174.132812 230.65625 166.71875 C 246.59375 155.820312 258.488281 136.5 252.132812 127.203125 Z M 252.132812 127.203125 " fill-opacity="1" fill-rule="nonzero"/></g></svg>