<svg viewBox="0 0 1280 600" fill="none" xmlns="http://www.w3.org/2000/svg">

<g clip-path="url(#clip0_2_8)">
<rect width="1280" height="600" rx="2" fill="#481231"/>
<rect width="426" height="600" fill="#E3F2FE"/>
<rect x="618" y="257" width="106" height="86" rx="10" fill="#BFDAF7"/>
<path d="M631.876 274V265.273H635.217C635.848 265.273 636.372 265.372 636.79 265.571C637.21 265.767 637.524 266.036 637.732 266.376C637.942 266.717 638.047 267.104 638.047 267.536C638.047 267.891 637.979 268.195 637.842 268.447C637.706 268.697 637.523 268.901 637.293 269.057C637.062 269.213 636.805 269.325 636.521 269.393V269.479C636.831 269.496 637.128 269.591 637.412 269.764C637.699 269.935 637.933 270.176 638.115 270.489C638.297 270.801 638.388 271.179 638.388 271.622C638.388 272.074 638.278 272.48 638.06 272.841C637.841 273.199 637.511 273.482 637.071 273.689C636.631 273.896 636.077 274 635.409 274H631.876ZM633.457 272.679H635.158C635.732 272.679 636.145 272.57 636.398 272.351C636.653 272.129 636.781 271.845 636.781 271.499C636.781 271.24 636.717 271.007 636.589 270.8C636.462 270.589 636.28 270.425 636.044 270.305C635.808 270.183 635.527 270.122 635.2 270.122H633.457V272.679ZM633.457 268.984H635.021C635.294 268.984 635.54 268.935 635.759 268.835C635.977 268.733 636.149 268.589 636.274 268.405C636.402 268.217 636.466 267.996 636.466 267.74C636.466 267.402 636.347 267.124 636.108 266.905C635.872 266.686 635.521 266.577 635.055 266.577H633.457V268.984ZM642.55 274.128C641.911 274.128 641.357 273.987 640.888 273.706C640.419 273.425 640.056 273.031 639.797 272.526C639.542 272.02 639.414 271.429 639.414 270.753C639.414 270.077 639.542 269.484 639.797 268.976C640.056 268.467 640.419 268.072 640.888 267.791C641.357 267.51 641.911 267.369 642.55 267.369C643.189 267.369 643.743 267.51 644.212 267.791C644.681 268.072 645.043 268.467 645.299 268.976C645.557 269.484 645.686 270.077 645.686 270.753C645.686 271.429 645.557 272.02 645.299 272.526C645.043 273.031 644.681 273.425 644.212 273.706C643.743 273.987 643.189 274.128 642.55 274.128ZM642.559 272.892C642.905 272.892 643.195 272.797 643.428 272.607C643.661 272.413 643.834 272.155 643.948 271.831C644.064 271.507 644.123 271.146 644.123 270.749C644.123 270.348 644.064 269.986 643.948 269.662C643.834 269.335 643.661 269.075 643.428 268.882C643.195 268.689 642.905 268.592 642.559 268.592C642.203 268.592 641.908 268.689 641.672 268.882C641.439 269.075 641.265 269.335 641.148 269.662C641.034 269.986 640.978 270.348 640.978 270.749C640.978 271.146 641.034 271.507 641.148 271.831C641.265 272.155 641.439 272.413 641.672 272.607C641.908 272.797 642.203 272.892 642.559 272.892ZM651.168 271.247V267.455H652.71V274H651.214V272.837H651.146C650.999 273.203 650.756 273.503 650.418 273.736C650.082 273.969 649.669 274.085 649.178 274.085C648.749 274.085 648.369 273.99 648.04 273.8C647.713 273.607 647.457 273.327 647.273 272.96C647.088 272.591 646.996 272.145 646.996 271.622V267.455H648.538V271.384C648.538 271.798 648.652 272.128 648.879 272.372C649.107 272.616 649.405 272.739 649.774 272.739C650.001 272.739 650.222 272.683 650.435 272.572C650.648 272.462 650.822 272.297 650.959 272.078C651.098 271.857 651.168 271.58 651.168 271.247ZM655.839 270.165V274H654.297V267.455H655.771V268.567H655.848C655.998 268.2 656.238 267.909 656.568 267.693C656.9 267.477 657.311 267.369 657.799 267.369C658.251 267.369 658.645 267.466 658.98 267.659C659.318 267.852 659.579 268.132 659.764 268.499C659.951 268.865 660.044 269.31 660.041 269.832V274H658.498V270.071C658.498 269.634 658.385 269.291 658.157 269.044C657.933 268.797 657.622 268.673 657.224 268.673C656.954 268.673 656.714 268.733 656.504 268.852C656.297 268.969 656.133 269.138 656.014 269.359C655.897 269.581 655.839 269.849 655.839 270.165ZM664.038 274.115C663.524 274.115 663.064 273.983 662.657 273.719C662.251 273.455 661.93 273.071 661.694 272.568C661.458 272.065 661.341 271.455 661.341 270.736C661.341 270.009 661.46 269.395 661.699 268.895C661.94 268.392 662.265 268.013 662.674 267.757C663.083 267.499 663.539 267.369 664.042 267.369C664.426 267.369 664.741 267.435 664.988 267.565C665.235 267.693 665.431 267.848 665.576 268.03C665.721 268.209 665.833 268.378 665.913 268.537H665.977V265.273H667.524V274H666.007V272.969H665.913C665.833 273.128 665.718 273.297 665.568 273.476C665.417 273.652 665.218 273.803 664.971 273.928C664.724 274.053 664.413 274.115 664.038 274.115ZM664.468 272.849C664.795 272.849 665.074 272.761 665.304 272.585C665.534 272.406 665.708 272.158 665.828 271.839C665.947 271.521 666.007 271.151 666.007 270.727C666.007 270.304 665.947 269.936 665.828 269.624C665.711 269.311 665.538 269.068 665.308 268.895C665.081 268.722 664.801 268.635 664.468 268.635C664.125 268.635 663.838 268.724 663.608 268.903C663.377 269.082 663.204 269.33 663.088 269.645C662.971 269.96 662.913 270.321 662.913 270.727C662.913 271.136 662.971 271.501 663.088 271.822C663.207 272.141 663.382 272.392 663.612 272.577C663.845 272.759 664.13 272.849 664.468 272.849ZM669.168 274V267.455H670.71V274H669.168ZM669.943 266.526C669.699 266.526 669.489 266.445 669.312 266.283C669.136 266.118 669.048 265.92 669.048 265.69C669.048 265.457 669.136 265.26 669.312 265.098C669.489 264.933 669.699 264.851 669.943 264.851C670.19 264.851 670.401 264.933 670.574 265.098C670.75 265.26 670.838 265.457 670.838 265.69C670.838 265.92 670.75 266.118 670.574 266.283C670.401 266.445 670.19 266.526 669.943 266.526ZM673.839 270.165V274H672.297V267.455H673.771V268.567H673.848C673.998 268.2 674.238 267.909 674.568 267.693C674.9 267.477 675.311 267.369 675.799 267.369C676.251 267.369 676.645 267.466 676.98 267.659C677.318 267.852 677.579 268.132 677.764 268.499C677.951 268.865 678.044 269.31 678.041 269.832V274H676.498V270.071C676.498 269.634 676.385 269.291 676.157 269.044C675.933 268.797 675.622 268.673 675.224 268.673C674.954 268.673 674.714 268.733 674.504 268.852C674.297 268.969 674.133 269.138 674.014 269.359C673.897 269.581 673.839 269.849 673.839 270.165ZM682.456 276.591C681.902 276.591 681.426 276.516 681.028 276.365C680.63 276.217 680.311 276.018 680.069 275.768C679.828 275.518 679.66 275.241 679.566 274.938L680.956 274.601C681.018 274.729 681.109 274.855 681.228 274.98C681.348 275.108 681.508 275.213 681.71 275.295C681.914 275.381 682.172 275.423 682.481 275.423C682.919 275.423 683.281 275.317 683.568 275.104C683.855 274.893 683.998 274.547 683.998 274.064V272.824H683.922C683.842 272.983 683.725 273.146 683.572 273.314C683.422 273.482 683.221 273.622 682.971 273.736C682.724 273.849 682.413 273.906 682.038 273.906C681.535 273.906 681.079 273.788 680.67 273.553C680.264 273.314 679.94 272.959 679.699 272.487C679.46 272.013 679.341 271.419 679.341 270.706C679.341 269.987 679.46 269.381 679.699 268.886C679.94 268.389 680.265 268.013 680.674 267.757C681.083 267.499 681.539 267.369 682.042 267.369C682.426 267.369 682.741 267.435 682.988 267.565C683.238 267.693 683.437 267.848 683.585 268.03C683.733 268.209 683.845 268.378 683.922 268.537H684.007V267.455H685.528V274.107C685.528 274.666 685.395 275.129 685.127 275.496C684.86 275.862 684.495 276.136 684.032 276.318C683.569 276.5 683.044 276.591 682.456 276.591ZM682.468 272.696C682.795 272.696 683.074 272.616 683.304 272.457C683.534 272.298 683.708 272.07 683.828 271.771C683.947 271.473 684.007 271.115 684.007 270.697C684.007 270.286 683.947 269.925 683.828 269.615C683.711 269.305 683.538 269.065 683.308 268.895C683.081 268.722 682.801 268.635 682.468 268.635C682.125 268.635 681.838 268.724 681.608 268.903C681.377 269.082 681.204 269.328 681.088 269.641C680.971 269.95 680.913 270.303 680.913 270.697C680.913 271.098 680.971 271.449 681.088 271.75C681.207 272.048 681.382 272.281 681.612 272.449C681.845 272.614 682.13 272.696 682.468 272.696ZM690.154 274V265.273H693.495C694.125 265.273 694.65 265.372 695.067 265.571C695.488 265.767 695.801 266.036 696.009 266.376C696.219 266.717 696.324 267.104 696.324 267.536C696.324 267.891 696.256 268.195 696.12 268.447C695.983 268.697 695.8 268.901 695.57 269.057C695.34 269.213 695.083 269.325 694.799 269.393V269.479C695.108 269.496 695.405 269.591 695.689 269.764C695.976 269.935 696.211 270.176 696.392 270.489C696.574 270.801 696.665 271.179 696.665 271.622C696.665 272.074 696.556 272.48 696.337 272.841C696.118 273.199 695.789 273.482 695.348 273.689C694.908 273.896 694.354 274 693.686 274H690.154ZM691.735 272.679H693.435C694.009 272.679 694.422 272.57 694.675 272.351C694.931 272.129 695.059 271.845 695.059 271.499C695.059 271.24 694.995 271.007 694.867 270.8C694.739 270.589 694.557 270.425 694.321 270.305C694.086 270.183 693.804 270.122 693.478 270.122H691.735V272.679ZM691.735 268.984H693.299C693.571 268.984 693.817 268.935 694.036 268.835C694.255 268.733 694.426 268.589 694.551 268.405C694.679 268.217 694.743 267.996 694.743 267.74C694.743 267.402 694.624 267.124 694.385 266.905C694.15 266.686 693.799 266.577 693.333 266.577H691.735V268.984ZM700.827 274.128C700.188 274.128 699.634 273.987 699.165 273.706C698.697 273.425 698.333 273.031 698.075 272.526C697.819 272.02 697.691 271.429 697.691 270.753C697.691 270.077 697.819 269.484 698.075 268.976C698.333 268.467 698.697 268.072 699.165 267.791C699.634 267.51 700.188 267.369 700.827 267.369C701.467 267.369 702.021 267.51 702.489 267.791C702.958 268.072 703.32 268.467 703.576 268.976C703.835 269.484 703.964 270.077 703.964 270.753C703.964 271.429 703.835 272.02 703.576 272.526C703.32 273.031 702.958 273.425 702.489 273.706C702.021 273.987 701.467 274.128 700.827 274.128ZM700.836 272.892C701.183 272.892 701.472 272.797 701.705 272.607C701.938 272.413 702.112 272.155 702.225 271.831C702.342 271.507 702.4 271.146 702.4 270.749C702.4 270.348 702.342 269.986 702.225 269.662C702.112 269.335 701.938 269.075 701.705 268.882C701.472 268.689 701.183 268.592 700.836 268.592C700.481 268.592 700.185 268.689 699.95 268.882C699.717 269.075 699.542 269.335 699.425 269.662C699.312 269.986 699.255 270.348 699.255 270.749C699.255 271.146 699.312 271.507 699.425 271.831C699.542 272.155 699.717 272.413 699.95 272.607C700.185 272.797 700.481 272.892 700.836 272.892ZM706.288 267.455L707.609 269.871L708.952 267.455H710.584L708.611 270.727L710.618 274H708.994L707.609 271.643L706.237 274H704.601L706.595 270.727L704.652 267.455H706.288ZM645.493 283.06C645.422 282.83 645.324 282.624 645.199 282.442C645.076 282.257 644.929 282.099 644.755 281.969C644.585 281.838 644.389 281.74 644.167 281.675C643.946 281.607 643.704 281.572 643.443 281.572C642.974 281.572 642.556 281.69 642.19 281.926C641.824 282.162 641.535 282.509 641.325 282.966C641.118 283.42 641.014 283.974 641.014 284.628C641.014 285.287 641.118 285.845 641.325 286.303C641.532 286.76 641.821 287.108 642.19 287.347C642.559 287.582 642.988 287.7 643.477 287.7C643.92 287.7 644.304 287.615 644.627 287.445C644.954 287.274 645.206 287.033 645.382 286.72C645.558 286.405 645.646 286.036 645.646 285.612L646.004 285.668H643.635V284.432H647.176V285.48C647.176 286.227 647.017 286.874 646.699 287.419C646.38 287.964 645.943 288.385 645.386 288.68C644.829 288.973 644.19 289.119 643.468 289.119C642.664 289.119 641.958 288.939 641.35 288.578C640.745 288.214 640.272 287.699 639.931 287.031C639.593 286.361 639.424 285.565 639.424 284.645C639.424 283.94 639.524 283.311 639.723 282.757C639.924 282.203 640.206 281.733 640.566 281.347C640.927 280.957 641.35 280.662 641.836 280.46C642.322 280.256 642.85 280.153 643.422 280.153C643.904 280.153 644.355 280.224 644.772 280.366C645.19 280.506 645.561 280.705 645.885 280.963C646.211 281.222 646.48 281.528 646.69 281.884C646.9 282.239 647.038 282.631 647.103 283.06H645.493ZM651.534 289.128C650.878 289.128 650.311 288.991 649.834 288.719C649.359 288.443 648.994 288.054 648.739 287.551C648.483 287.045 648.355 286.45 648.355 285.766C648.355 285.092 648.483 284.501 648.739 283.993C648.997 283.482 649.358 283.084 649.821 282.8C650.284 282.513 650.828 282.369 651.453 282.369C651.857 282.369 652.237 282.435 652.595 282.565C652.956 282.693 653.274 282.892 653.55 283.162C653.828 283.432 654.047 283.776 654.206 284.193C654.365 284.608 654.445 285.102 654.445 285.676V286.149H649.08V285.109H652.966C652.963 284.814 652.899 284.551 652.774 284.321C652.649 284.088 652.474 283.905 652.25 283.771C652.028 283.638 651.77 283.571 651.474 283.571C651.159 283.571 650.882 283.648 650.643 283.801C650.405 283.952 650.219 284.151 650.085 284.398C649.955 284.642 649.888 284.911 649.885 285.203V286.111C649.885 286.491 649.955 286.818 650.094 287.091C650.233 287.361 650.428 287.568 650.678 287.713C650.928 287.855 651.22 287.926 651.555 287.926C651.78 287.926 651.983 287.895 652.165 287.832C652.347 287.767 652.504 287.672 652.638 287.547C652.771 287.422 652.872 287.267 652.94 287.082L654.381 287.244C654.29 287.625 654.116 287.957 653.861 288.241C653.608 288.523 653.284 288.741 652.889 288.898C652.494 289.051 652.043 289.128 651.534 289.128ZM657.292 285.165V289H655.75V282.455H657.224V283.567H657.301C657.451 283.2 657.691 282.909 658.021 282.693C658.353 282.477 658.764 282.369 659.252 282.369C659.704 282.369 660.098 282.466 660.433 282.659C660.771 282.852 661.032 283.132 661.217 283.499C661.404 283.865 661.497 284.31 661.494 284.832V289H659.951V285.071C659.951 284.634 659.838 284.291 659.61 284.044C659.386 283.797 659.075 283.673 658.677 283.673C658.407 283.673 658.167 283.733 657.957 283.852C657.75 283.969 657.586 284.138 657.467 284.359C657.35 284.581 657.292 284.849 657.292 285.165ZM665.96 289.128C665.304 289.128 664.737 288.991 664.26 288.719C663.785 288.443 663.42 288.054 663.164 287.551C662.909 287.045 662.781 286.45 662.781 285.766C662.781 285.092 662.909 284.501 663.164 283.993C663.423 283.482 663.784 283.084 664.247 282.8C664.71 282.513 665.254 282.369 665.879 282.369C666.282 282.369 666.663 282.435 667.021 282.565C667.382 282.693 667.7 282.892 667.975 283.162C668.254 283.432 668.473 283.776 668.632 284.193C668.791 284.608 668.87 285.102 668.87 285.676V286.149H663.505V285.109H667.392C667.389 284.814 667.325 284.551 667.2 284.321C667.075 284.088 666.9 283.905 666.676 283.771C666.454 283.638 666.196 283.571 665.9 283.571C665.585 283.571 665.308 283.648 665.069 283.801C664.831 283.952 664.645 284.151 664.511 284.398C664.38 284.642 664.314 284.911 664.311 285.203V286.111C664.311 286.491 664.38 286.818 664.52 287.091C664.659 287.361 664.853 287.568 665.103 287.713C665.353 287.855 665.646 287.926 665.981 287.926C666.206 287.926 666.409 287.895 666.591 287.832C666.772 287.767 666.93 287.672 667.064 287.547C667.197 287.422 667.298 287.267 667.366 287.082L668.806 287.244C668.716 287.625 668.542 287.957 668.287 288.241C668.034 288.523 667.71 288.741 667.315 288.898C666.92 289.051 666.468 289.128 665.96 289.128ZM670.175 289V282.455H671.671V283.545H671.739C671.859 283.168 672.063 282.876 672.353 282.672C672.646 282.464 672.979 282.361 673.354 282.361C673.44 282.361 673.535 282.365 673.64 282.374C673.748 282.379 673.837 282.389 673.908 282.403V283.822C673.843 283.8 673.739 283.78 673.597 283.763C673.458 283.743 673.323 283.733 673.192 283.733C672.911 283.733 672.658 283.794 672.434 283.916C672.212 284.036 672.038 284.202 671.91 284.415C671.782 284.628 671.718 284.874 671.718 285.152V289H670.175ZM676.7 289.132C676.285 289.132 675.911 289.058 675.579 288.911C675.249 288.76 674.988 288.538 674.795 288.246C674.604 287.953 674.509 287.592 674.509 287.163C674.509 286.794 674.577 286.489 674.714 286.247C674.85 286.006 675.036 285.812 675.272 285.668C675.508 285.523 675.773 285.413 676.069 285.339C676.367 285.263 676.675 285.207 676.994 285.173C677.377 285.134 677.688 285.098 677.927 285.067C678.165 285.033 678.339 284.982 678.447 284.913C678.558 284.842 678.613 284.733 678.613 284.585V284.56C678.613 284.239 678.518 283.99 678.327 283.814C678.137 283.638 677.863 283.55 677.505 283.55C677.127 283.55 676.827 283.632 676.606 283.797C676.387 283.962 676.239 284.156 676.163 284.381L674.722 284.176C674.836 283.778 675.023 283.446 675.285 283.179C675.546 282.909 675.866 282.707 676.244 282.574C676.621 282.438 677.039 282.369 677.496 282.369C677.812 282.369 678.126 282.406 678.438 282.48C678.751 282.554 679.036 282.676 679.295 282.847C679.553 283.014 679.761 283.243 679.917 283.533C680.076 283.822 680.156 284.185 680.156 284.619V289H678.673V288.101H678.621C678.528 288.283 678.396 288.453 678.225 288.612C678.058 288.768 677.846 288.895 677.59 288.991C677.337 289.085 677.04 289.132 676.7 289.132ZM677.1 287.999C677.41 287.999 677.678 287.937 677.906 287.815C678.133 287.69 678.308 287.526 678.43 287.321C678.555 287.116 678.617 286.893 678.617 286.652V285.881C678.569 285.92 678.487 285.957 678.37 285.991C678.256 286.026 678.129 286.055 677.987 286.081C677.844 286.107 677.704 286.129 677.565 286.149C677.425 286.169 677.305 286.186 677.202 286.2C676.972 286.232 676.766 286.283 676.585 286.354C676.403 286.425 676.259 286.524 676.154 286.652C676.049 286.777 675.996 286.939 675.996 287.138C675.996 287.422 676.1 287.636 676.308 287.781C676.515 287.926 676.779 287.999 677.1 287.999ZM684.975 282.455V283.648H681.212V282.455H684.975ZM682.141 280.886H683.684V287.031C683.684 287.239 683.715 287.398 683.778 287.509C683.843 287.616 683.928 287.69 684.033 287.73C684.138 287.77 684.255 287.79 684.383 287.79C684.479 287.79 684.567 287.783 684.647 287.768C684.729 287.754 684.792 287.741 684.835 287.73L685.094 288.936C685.012 288.964 684.894 288.996 684.741 289.03C684.59 289.064 684.406 289.084 684.187 289.089C683.8 289.101 683.452 289.043 683.143 288.915C682.833 288.784 682.587 288.582 682.406 288.31C682.227 288.037 682.138 287.696 682.141 287.287V280.886ZM686.265 289V282.455H687.808V289H686.265ZM687.041 281.526C686.797 281.526 686.586 281.445 686.41 281.283C686.234 281.118 686.146 280.92 686.146 280.69C686.146 280.457 686.234 280.26 686.41 280.098C686.586 279.933 686.797 279.851 687.041 279.851C687.288 279.851 687.498 279.933 687.672 280.098C687.848 280.26 687.936 280.457 687.936 280.69C687.936 280.92 687.848 281.118 687.672 281.283C687.498 281.445 687.288 281.526 687.041 281.526ZM692.249 289.128C691.61 289.128 691.056 288.987 690.587 288.706C690.119 288.425 689.755 288.031 689.496 287.526C689.241 287.02 689.113 286.429 689.113 285.753C689.113 285.077 689.241 284.484 689.496 283.976C689.755 283.467 690.119 283.072 690.587 282.791C691.056 282.51 691.61 282.369 692.249 282.369C692.888 282.369 693.442 282.51 693.911 282.791C694.38 283.072 694.742 283.467 694.998 283.976C695.256 284.484 695.386 285.077 695.386 285.753C695.386 286.429 695.256 287.02 694.998 287.526C694.742 288.031 694.38 288.425 693.911 288.706C693.442 288.987 692.888 289.128 692.249 289.128ZM692.258 287.892C692.604 287.892 692.894 287.797 693.127 287.607C693.36 287.413 693.533 287.155 693.647 286.831C693.763 286.507 693.822 286.146 693.822 285.749C693.822 285.348 693.763 284.986 693.647 284.662C693.533 284.335 693.36 284.075 693.127 283.882C692.894 283.689 692.604 283.592 692.258 283.592C691.903 283.592 691.607 283.689 691.371 283.882C691.138 284.075 690.964 284.335 690.847 284.662C690.734 284.986 690.677 285.348 690.677 285.749C690.677 286.146 690.734 286.507 690.847 286.831C690.964 287.155 691.138 287.413 691.371 287.607C691.607 287.797 691.903 287.892 692.258 287.892ZM698.238 285.165V289H696.695V282.455H698.169V283.567H698.246C698.397 283.2 698.637 282.909 698.966 282.693C699.299 282.477 699.709 282.369 700.198 282.369C700.65 282.369 701.043 282.466 701.378 282.659C701.716 282.852 701.978 283.132 702.162 283.499C702.35 283.865 702.442 284.31 702.439 284.832V289H700.897V285.071C700.897 284.634 700.783 284.291 700.556 284.044C700.331 283.797 700.02 283.673 699.623 283.673C699.353 283.673 699.113 283.733 698.902 283.852C698.695 283.969 698.532 284.138 698.412 284.359C698.296 284.581 698.238 284.849 698.238 285.165Z" fill="black"/>
<path d="M662.25 303.75V323.75H682.25" stroke="#FE4939" stroke-width="2" stroke-linecap="round" stroke-linejoin="round"/>
<path d="M662.25 323.75L669.75 316.25" stroke="#FE4939" stroke-width="2" stroke-linecap="round" stroke-linejoin="round"/>
<path d="M658.5 307.5L662.25 303.75L666 307.5" stroke="#FE4939" stroke-width="2" stroke-linecap="round" stroke-linejoin="round"/>
<path d="M678.5 320L682.25 323.75L678.5 327.5" stroke="#FE4939" stroke-width="2" stroke-linecap="round" stroke-linejoin="round"/>
<rect x="452" y="257" width="106" height="86" rx="10" fill="#BFDAF7"/>
<path d="M474.078 277.273V286H472.498V277.273H474.078ZM477.265 282.165V286H475.722V279.455H477.197V280.567H477.273C477.424 280.2 477.664 279.909 477.994 279.693C478.326 279.477 478.737 279.369 479.225 279.369C479.677 279.369 480.07 279.466 480.406 279.659C480.744 279.852 481.005 280.132 481.19 280.499C481.377 280.865 481.469 281.31 481.467 281.832V286H479.924V282.071C479.924 281.634 479.81 281.291 479.583 281.044C479.359 280.797 479.048 280.673 478.65 280.673C478.38 280.673 478.14 280.733 477.93 280.852C477.722 280.969 477.559 281.138 477.44 281.359C477.323 281.581 477.265 281.849 477.265 282.165ZM483.035 288.455V279.455H484.552V280.537H484.641C484.721 280.378 484.833 280.209 484.978 280.03C485.123 279.848 485.319 279.693 485.566 279.565C485.813 279.435 486.129 279.369 486.512 279.369C487.018 279.369 487.474 279.499 487.88 279.757C488.289 280.013 488.613 280.392 488.852 280.895C489.093 281.395 489.214 282.009 489.214 282.736C489.214 283.455 489.096 284.065 488.86 284.568C488.624 285.071 488.303 285.455 487.897 285.719C487.491 285.983 487.031 286.115 486.516 286.115C486.141 286.115 485.83 286.053 485.583 285.928C485.336 285.803 485.137 285.652 484.987 285.476C484.839 285.297 484.724 285.128 484.641 284.969H484.577V288.455H483.035ZM484.548 282.727C484.548 283.151 484.607 283.521 484.727 283.839C484.849 284.158 485.023 284.406 485.251 284.585C485.481 284.761 485.759 284.849 486.086 284.849C486.427 284.849 486.712 284.759 486.942 284.577C487.173 284.392 487.346 284.141 487.462 283.822C487.582 283.501 487.641 283.136 487.641 282.727C487.641 282.321 487.583 281.96 487.467 281.645C487.35 281.33 487.177 281.082 486.947 280.903C486.717 280.724 486.43 280.635 486.086 280.635C485.756 280.635 485.477 280.722 485.246 280.895C485.016 281.068 484.842 281.311 484.722 281.624C484.606 281.936 484.548 282.304 484.548 282.727ZM494.707 283.247V279.455H496.249V286H494.754V284.837H494.685C494.538 285.203 494.295 285.503 493.957 285.736C493.621 285.969 493.208 286.085 492.717 286.085C492.288 286.085 491.908 285.99 491.579 285.8C491.252 285.607 490.996 285.327 490.812 284.96C490.627 284.591 490.535 284.145 490.535 283.622V279.455H492.077V283.384C492.077 283.798 492.191 284.128 492.418 284.372C492.646 284.616 492.944 284.739 493.313 284.739C493.54 284.739 493.761 284.683 493.974 284.572C494.187 284.462 494.362 284.297 494.498 284.078C494.637 283.857 494.707 283.58 494.707 283.247ZM501.104 279.455V280.648H497.341V279.455H501.104ZM498.27 277.886H499.813V284.031C499.813 284.239 499.844 284.398 499.907 284.509C499.972 284.616 500.057 284.69 500.162 284.73C500.267 284.77 500.384 284.79 500.512 284.79C500.608 284.79 500.696 284.783 500.776 284.768C500.858 284.754 500.921 284.741 500.963 284.73L501.223 285.936C501.141 285.964 501.023 285.996 500.87 286.03C500.719 286.064 500.534 286.084 500.316 286.089C499.929 286.101 499.581 286.043 499.272 285.915C498.962 285.784 498.716 285.582 498.534 285.31C498.355 285.037 498.267 284.696 498.27 284.287V277.886ZM506.607 277.273L508.878 284.142H508.967L511.234 277.273H512.973L509.896 286H507.945L504.872 277.273H506.607ZM514.054 286V279.455H515.597V286H514.054ZM514.83 278.526C514.586 278.526 514.375 278.445 514.199 278.283C514.023 278.118 513.935 277.92 513.935 277.69C513.935 277.457 514.023 277.26 514.199 277.098C514.375 276.933 514.586 276.851 514.83 276.851C515.077 276.851 515.287 276.933 515.461 277.098C515.637 277.26 515.725 277.457 515.725 277.69C515.725 277.92 515.637 278.118 515.461 278.283C515.287 278.445 515.077 278.526 514.83 278.526ZM519.612 286.115C519.098 286.115 518.638 285.983 518.232 285.719C517.825 285.455 517.504 285.071 517.268 284.568C517.033 284.065 516.915 283.455 516.915 282.736C516.915 282.009 517.034 281.395 517.273 280.895C517.514 280.392 517.839 280.013 518.249 279.757C518.658 279.499 519.114 279.369 519.616 279.369C520 279.369 520.315 279.435 520.562 279.565C520.81 279.693 521.006 279.848 521.151 280.03C521.295 280.209 521.408 280.378 521.487 280.537H521.551V277.273H523.098V286H521.581V284.969H521.487C521.408 285.128 521.293 285.297 521.142 285.476C520.991 285.652 520.793 285.803 520.545 285.928C520.298 286.053 519.987 286.115 519.612 286.115ZM520.043 284.849C520.369 284.849 520.648 284.761 520.878 284.585C521.108 284.406 521.283 284.158 521.402 283.839C521.521 283.521 521.581 283.151 521.581 282.727C521.581 282.304 521.521 281.936 521.402 281.624C521.286 281.311 521.112 281.068 520.882 280.895C520.655 280.722 520.375 280.635 520.043 280.635C519.699 280.635 519.412 280.724 519.182 280.903C518.952 281.082 518.778 281.33 518.662 281.645C518.545 281.96 518.487 282.321 518.487 282.727C518.487 283.136 518.545 283.501 518.662 283.822C518.781 284.141 518.956 284.392 519.186 284.577C519.419 284.759 519.705 284.849 520.043 284.849ZM527.64 286.128C526.983 286.128 526.417 285.991 525.939 285.719C525.465 285.443 525.1 285.054 524.844 284.551C524.588 284.045 524.461 283.45 524.461 282.766C524.461 282.092 524.588 281.501 524.844 280.993C525.103 280.482 525.463 280.084 525.926 279.8C526.39 279.513 526.934 279.369 527.559 279.369C527.962 279.369 528.343 279.435 528.701 279.565C529.061 279.693 529.38 279.892 529.655 280.162C529.934 280.432 530.152 280.776 530.311 281.193C530.471 281.608 530.55 282.102 530.55 282.676V283.149H525.185V282.109H529.071C529.069 281.814 529.005 281.551 528.88 281.321C528.755 281.088 528.58 280.905 528.355 280.771C528.134 280.638 527.875 280.571 527.58 280.571C527.265 280.571 526.988 280.648 526.749 280.801C526.51 280.952 526.324 281.151 526.191 281.398C526.06 281.642 525.993 281.911 525.99 282.203V283.111C525.99 283.491 526.06 283.818 526.199 284.091C526.338 284.361 526.533 284.568 526.783 284.713C527.033 284.855 527.326 284.926 527.661 284.926C527.885 284.926 528.088 284.895 528.27 284.832C528.452 284.767 528.61 284.672 528.743 284.547C528.877 284.422 528.978 284.267 529.046 284.082L530.486 284.244C530.395 284.625 530.222 284.957 529.966 285.241C529.713 285.523 529.39 285.741 528.995 285.898C528.6 286.051 528.148 286.128 527.64 286.128ZM534.71 286.128C534.071 286.128 533.517 285.987 533.048 285.706C532.58 285.425 532.216 285.031 531.957 284.526C531.702 284.02 531.574 283.429 531.574 282.753C531.574 282.077 531.702 281.484 531.957 280.976C532.216 280.467 532.58 280.072 533.048 279.791C533.517 279.51 534.071 279.369 534.71 279.369C535.349 279.369 535.903 279.51 536.372 279.791C536.841 280.072 537.203 280.467 537.459 280.976C537.717 281.484 537.847 282.077 537.847 282.753C537.847 283.429 537.717 284.02 537.459 284.526C537.203 285.031 536.841 285.425 536.372 285.706C535.903 285.987 535.349 286.128 534.71 286.128ZM534.719 284.892C535.065 284.892 535.355 284.797 535.588 284.607C535.821 284.413 535.994 284.155 536.108 283.831C536.224 283.507 536.283 283.146 536.283 282.749C536.283 282.348 536.224 281.986 536.108 281.662C535.994 281.335 535.821 281.075 535.588 280.882C535.355 280.689 535.065 280.592 534.719 280.592C534.364 280.592 534.068 280.689 533.832 280.882C533.599 281.075 533.425 281.335 533.308 281.662C533.195 281.986 533.138 282.348 533.138 282.749C533.138 283.146 533.195 283.507 533.308 283.831C533.425 284.155 533.599 284.413 533.832 284.607C534.068 284.797 534.364 284.892 534.719 284.892Z" fill="#481231"/>
<path d="M513.75 303.75H496.25C494.869 303.75 493.75 304.869 493.75 306.25V323.75C493.75 325.131 494.869 326.25 496.25 326.25H513.75C515.131 326.25 516.25 325.131 516.25 323.75V306.25C516.25 304.869 515.131 303.75 513.75 303.75Z" stroke="#FE4939" stroke-width="2" stroke-linecap="round" stroke-linejoin="round"/>
<path d="M498.75 303.75V326.25" stroke="#FE4939" stroke-width="2" stroke-linecap="round" stroke-linejoin="round"/>
<path d="M493.75 309.375H498.75" stroke="#FE4939" stroke-width="2" stroke-linecap="round" stroke-linejoin="round"/>
<path d="M493.75 315H516.25" stroke="#FE4939" stroke-width="2" stroke-linecap="round" stroke-linejoin="round"/>
<path d="M493.75 320.625H498.75" stroke="#FE4939" stroke-width="2" stroke-linecap="round" stroke-linejoin="round"/>
<path d="M511.25 303.75V326.25" stroke="#FE4939" stroke-width="2" stroke-linecap="round" stroke-linejoin="round"/>
<path d="M511.25 309.375H516.25" stroke="#FE4939" stroke-width="2" stroke-linecap="round" stroke-linejoin="round"/>
<path d="M511.25 320.625H516.25" stroke="#FE4939" stroke-width="2" stroke-linecap="round" stroke-linejoin="round"/>
<path d="M606.707 300.707C607.098 300.317 607.098 299.683 606.707 299.293L600.343 292.929C599.953 292.538 599.319 292.538 598.929 292.929C598.538 293.319 598.538 293.953 598.929 294.343L604.586 300L598.929 305.657C598.538 306.047 598.538 306.681 598.929 307.071C599.319 307.462 599.953 307.462 600.343 307.071L606.707 300.707ZM570 301H606V299H570V301Z" fill="#FE4939"/>
</g>
<rect x="0.5" y="0.5" width="1279" height="599" rx="1.5" stroke="white" stroke-opacity="0.1"/>
<defs>
<clipPath id="clip0_2_8">
<rect width="1280" height="600" rx="2" fill="white"/>
</clipPath>
</defs>
</svg>
