<svg xmlns="http://www.w3.org/2000/svg" xmlns:xlink="http://www.w3.org/1999/xlink" width="500" zoomAndPan="magnify" viewBox="0 0 375 374.999991" height="500" preserveAspectRatio="xMidYMid meet" version="1.0"><defs><clipPath id="b1e94ac31e"><path d="M 112.5 112.5 L 262.5 112.5 L 262.5 262.5 L 112.5 262.5 Z M 112.5 112.5 " clip-rule="nonzero"/></clipPath></defs><rect x="-37.5" width="450" fill="#ffffff" y="-37.499999" height="449.999989" fill-opacity="1"/><rect x="-37.5" width="450" fill="#ffffff" y="-37.499999" height="449.999989" fill-opacity="1"/><g clip-path="url(#b1e94ac31e)"><path fill="#000000" d="M 128.507812 262.5 C 128.988281 262.5 129.496094 262.320312 129.855469 261.929688 L 156.566406 235.222656 L 158.722656 237.378906 C 159.113281 237.769531 159.59375 237.949219 160.070312 237.949219 C 160.550781 237.949219 161.0625 237.769531 161.421875 237.378906 L 168.824219 229.976562 L 169.214844 230.367188 C 169.574219 230.753906 170.082031 230.933594 170.5625 230.933594 C 171.042969 230.933594 171.523438 230.753906 171.914062 230.394531 L 255.84375 149.460938 C 260.011719 145.445312 262.351562 140.046875 262.378906 134.234375 C 262.441406 128.445312 260.222656 122.992188 256.113281 118.914062 C 252.066406 114.808594 246.644531 112.5 240.828125 112.621094 C 235.042969 112.679688 229.644531 114.988281 225.628906 119.183594 L 144.664062 203.117188 C 143.945312 203.867188 143.945312 205.066406 144.695312 205.816406 L 145.082031 206.203125 L 137.679688 213.609375 C 137.320312 213.96875 137.109375 214.449219 137.109375 214.957031 C 137.109375 215.46875 137.320312 215.945312 137.679688 216.308594 L 139.839844 218.464844 L 113.128906 245.175781 C 112.769531 245.535156 112.558594 246.011719 112.558594 246.523438 C 112.558594 247.03125 112.769531 247.511719 113.128906 247.871094 L 127.160156 261.902344 C 127.519531 262.320312 128.027344 262.5 128.507812 262.5 Z M 228.386719 121.851562 C 231.683594 118.433594 236.121094 116.515625 240.855469 116.488281 C 240.917969 116.488281 240.976562 116.488281 241.039062 116.488281 C 245.714844 116.488281 250.121094 118.316406 253.445312 121.644531 C 256.804688 125 258.632812 129.464844 258.601562 134.234375 C 258.542969 139 256.65625 143.40625 253.238281 146.703125 L 170.625 226.320312 L 148.742188 204.4375 Z M 147.8125 208.933594 L 166.15625 227.277344 L 160.101562 233.332031 L 141.757812 214.988281 Z M 142.535156 221.191406 L 153.867188 232.492188 L 128.507812 257.855469 L 117.175781 246.554688 Z M 192.746094 190.46875 C 197.929688 190.46875 204.675781 187.171875 210.582031 181.265625 C 219.214844 172.632812 222.300781 162.199219 217.597656 157.492188 C 215.167969 155.066406 211.269531 154.617188 206.566406 156.175781 C 202.308594 157.582031 197.78125 160.550781 193.824219 164.507812 C 185.191406 173.140625 182.105469 183.574219 186.808594 188.28125 C 188.28125 189.75 190.347656 190.46875 192.746094 190.46875 Z M 207.765625 159.800781 C 209.171875 159.324219 210.492188 159.082031 211.601562 159.082031 C 213.007812 159.082031 214.117188 159.441406 214.867188 160.191406 C 216.636719 161.960938 216.246094 166.1875 213.578125 171.011719 L 204.046875 161.480469 C 205.277344 160.792969 206.535156 160.222656 207.765625 159.800781 Z M 196.523438 167.207031 C 197.871094 165.855469 199.28125 164.660156 200.71875 163.578125 L 211.449219 174.308594 C 210.433594 175.71875 209.234375 177.128906 207.824219 178.507812 C 206.445312 179.886719 205.035156 181.085938 203.628906 182.132812 L 192.894531 171.402344 C 193.945312 170.023438 195.144531 168.613281 196.523438 167.207031 Z M 190.796875 174.730469 L 200.328125 184.261719 C 195.503906 186.929688 191.277344 187.320312 189.507812 185.550781 C 187.738281 183.78125 188.128906 179.554688 190.796875 174.730469 Z M 190.796875 174.730469 " fill-opacity="1" fill-rule="nonzero"/></g></svg>