<svg height="512" viewBox="0 0 32 32" width="512" xmlns="http://www.w3.org/2000/svg"><g id="Sperm"><path d="m24.94 12.3c-3 2.74-5.25.74-6.67 3.16-.57.86-.33 2.4-1.62 3.89a5.76 5.76 0 0 1 -4.26 2.22c-3.9.36-3.46 3.4-4.3 4.91a5.05 5.05 0 0 1 -3.4 2.52c-1.15.22-2.29 0-3.69 1.25 1.27-1.46 2.55-1.42 3.56-1.76a4.25 4.25 0 0 0 2.57-2.49c.47-1.17 0-2.5 1.09-4a5.51 5.51 0 0 1 3.78-2.52c3.52-.8 2.57-3.48 3.35-5.35a6.35 6.35 0 0 1 4-3.62c1.87-.46 2-.48 2.58-1.2z" fill="currentColor"/><path d="m27.63 12.6c-2.48 2.48-4.89.5-6.43-1s-3.53-4-1.05-6.43c3.59-3.59 8.47-4.09 10-2.54s1.07 6.37-2.52 9.97z" fill="currentColor"/></g></svg>